HIERARCHY
ROOT Hips
{
	OFFSET -0.001795 -0.223333 0.028219
	CHANNELS 6 Xposition Yposition Zposition Zrotation Yrotation Xrotation 
	JOINT LeftUpLeg
	{
		OFFSET 0.069520 -0.091406 -0.006815
		CHANNELS 3 Zrotation Yrotation Xrotation
		JOINT LeftLeg
		{
			OFFSET 0.034277 -0.375199 -0.004496
			CHANNELS 3 Zrotation Yrotation Xrotation
			JOINT LeftFoot
			{
				OFFSET -0.013596 -0.397961 -0.043693
				CHANNELS 3 Zrotation Yrotation Xrotation
				JOINT LeftToe
				{
					OFFSET 0.026358 -0.055791 0.119288
					CHANNELS 3 Zrotation Yrotation Xrotation
					End Site
					{
						OFFSET 0.000000 0.000000 0.000000
					}
				}
			}
		}
	}
	JOINT RightUpLeg
	{
		OFFSET -0.067670 -0.090522 -0.004320
		CHANNELS 3 Zrotation Yrotation Xrotation
		JOINT RightLeg
		{
			OFFSET -0.038290 -0.382569 -0.008850
			CHANNELS 3 Zrotation Yrotation Xrotation
			JOINT RightFoot
			{
				OFFSET 0.015774 -0.398415 -0.042312
				CHANNELS 3 Zrotation Yrotation Xrotation
				JOINT RightToe
				{
					OFFSET -0.025372 -0.048144 0.123348
					CHANNELS 3 Zrotation Yrotation Xrotation
					End Site
					{
						OFFSET 0.000000 0.000000 0.000000
					}
				}
			}
		}
	}
	JOINT Spine
	{
		OFFSET -0.002533 0.108963 -0.026696
		CHANNELS 3 Zrotation Yrotation Xrotation
		JOINT Spine1
		{
			OFFSET 0.005487 0.135180 0.001092
			CHANNELS 3 Zrotation Yrotation Xrotation
			JOINT Spine2
			{
				OFFSET 0.001457 0.052922 0.025425
				CHANNELS 3 Zrotation Yrotation Xrotation
				JOINT Neck
				{
					OFFSET -0.002778 0.213870 -0.042857
					CHANNELS 3 Zrotation Yrotation Xrotation
					JOINT Head
					{
						OFFSET 0.005152 0.064970 0.051349
						CHANNELS 3 Zrotation Yrotation Xrotation
						End Site
						{
							OFFSET 0.000000 0.000000 0.000000
						}
					}
				}
				JOINT LeftShoulder
				{
					OFFSET 0.078845 0.121749 -0.034090
					CHANNELS 3 Zrotation Yrotation Xrotation
					JOINT LeftArm
					{
						OFFSET 0.090977 0.030469 -0.008868
						CHANNELS 3 Zrotation Yrotation Xrotation
						JOINT LeftForeArm
						{
							OFFSET 0.259612 -0.012772 -0.027456
							CHANNELS 3 Zrotation Yrotation Xrotation
							JOINT LeftHand
							{
								OFFSET 0.249234 0.008986 -0.001171
								CHANNELS 3 Zrotation Yrotation Xrotation
								End Site
								{
									OFFSET 0.000000 0.000000 0.000000
								}
							}
						}
					}
				}
				JOINT RightShoulder
				{
					OFFSET -0.081759 0.118833 -0.038615
					CHANNELS 3 Zrotation Yrotation Xrotation
					JOINT RightArm
					{
						OFFSET -0.096012 0.032551 -0.009143
						CHANNELS 3 Zrotation Yrotation Xrotation
						JOINT RightForeArm
						{
							OFFSET -0.253742 -0.013329 -0.021401
							CHANNELS 3 Zrotation Yrotation Xrotation
							JOINT RightHand
							{
								OFFSET -0.255298 0.007772 -0.005559
								CHANNELS 3 Zrotation Yrotation Xrotation
								End Site
								{
									OFFSET 0.000000 0.000000 0.000000
								}
							}
						}
					}
				}
			}
		}
	}
}
MOTION
Frames: 7
Frame Time: 0.050000
0.000000 0.949421 0.000000 -0.242810 -3.440981 1.484146 4.370885 0.137207 3.060147 -4.921414 0.535000 -4.914980 4.014626 10.865866 12.387708 0.000000 0.000000 0.000000 -4.778485 0.160974 0.096675 -1.814806 0.297636 2.047102 -6.489249 -17.696758 16.571193 0.000000 0.000000 0.000000 8.272235 0.034936 -1.083528 -5.593601 2.070730 -17.139790 -2.199334 6.352601 26.514739 9.921248 -3.413138 -26.106701 0.000000 0.000000 0.000000 -16.829808 -16.317155 6.530219 -57.156213 -4.376690 -6.896772 3.287366 -31.385419 0.495613 0.000000 0.000000 0.000000 22.614549 2.202094 1.248200 59.548088 4.654639 -6.066895 -0.722318 32.123871 1.803871 0.000000 0.000000 0.000000 
-0.000341 0.947747 0.001442 -0.240095 -3.894593 1.852386 4.487094 0.154221 3.394181 -5.205893 0.552988 -5.925692 4.236286 11.156815 12.246821 0.000000 0.000000 0.000000 -4.769472 0.203547 -0.512042 -1.909768 0.331632 2.453197 -6.393865 -17.541122 15.915049 0.000000 0.000000 0.000000 8.600040 0.148002 -2.093963 -6.116461 2.221987 -17.093622 -2.358822 6.910638 27.100056 11.256871 -3.881688 -27.691462 0.000000 0.000000 0.000000 -16.516565 -16.986080 6.819872 -57.575861 -4.546530 -6.923648 4.745830 -30.717669 0.093103 0.000000 0.000000 0.000000 22.649404 2.179242 1.344187 60.912377 4.996835 -6.047403 -0.851137 31.716513 1.798268 0.000000 0.000000 0.000000 
-0.000632 0.947714 0.002454 -0.197996 -3.003804 1.826521 4.946366 0.102686 2.956433 -5.888794 0.597386 -5.191344 3.817529 10.519343 11.967350 0.000000 0.000000 0.000000 -4.879600 0.160296 0.159550 -1.582570 0.253707 1.740341 -6.797610 -18.115188 16.206538 0.000000 0.000000 0.000000 8.527195 0.184265 -2.451454 -6.155755 2.247921 -17.278254 -2.489641 6.123776 27.681982 11.143072 -3.724764 -28.564412 0.000000 0.000000 0.000000 -16.821070 -16.748886 6.788006 -57.454163 -5.450666 -6.536795 3.659793 -27.349746 0.343055 0.000000 0.000000 0.000000 23.384368 2.405058 1.420626 59.788780 6.128792 -5.491363 -1.266866 28.935917 1.445161 0.000000 0.000000 0.000000 
-0.000970 0.947715 0.003421 -0.201447 -3.465771 1.843845 4.929133 0.133714 3.413701 -5.908606 0.596532 -5.807247 3.980419 10.778293 12.200408 0.000000 0.000000 0.000000 -4.909136 0.161961 0.253451 -1.597827 0.240476 1.489847 -6.557511 -17.767348 16.071375 0.000000 0.000000 0.000000 8.682467 0.259525 -3.036859 -6.345104 2.292535 -17.437594 -2.433297 6.486947 28.299827 11.594455 -3.899295 -29.033961 0.000000 0.000000 0.000000 -16.389520 -18.182262 7.489766 -58.476064 -5.245461 -6.773384 5.423817 -27.227788 -0.063639 0.000000 0.000000 0.000000 23.325755 2.985091 1.816241 60.493879 6.476724 -5.399371 -2.883134 28.273619 1.056440 0.000000 0.000000 0.000000 
-0.001303 0.948102 0.004051 -0.295676 -3.405691 1.646326 5.109688 0.143590 3.701750 -5.989445 0.600699 -5.858614 3.911139 10.689180 12.286785 0.000000 0.000000 0.000000 -4.957829 0.133175 0.769122 -1.286756 0.182550 1.053201 -6.520511 -17.709698 16.217202 0.000000 0.000000 0.000000 8.285804 0.253806 -3.005138 -5.630459 2.084812 -17.097670 -2.705664 6.338342 27.823564 11.703613 -3.945229 -29.098159 0.000000 0.000000 0.000000 -17.011873 -18.325468 7.615786 -58.440178 -5.154185 -6.746907 5.598193 -26.121347 -0.107885 0.000000 0.000000 0.000000 23.749776 3.526518 2.096263 60.041160 6.783875 -5.178664 -3.203069 27.480593 0.911209 0.000000 0.000000 0.000000 
-0.001604 0.948461 0.004358 -0.478148 -3.896564 1.641770 5.170416 0.160161 3.925541 -5.806978 0.592496 -6.069578 4.134978 11.030353 12.466422 0.000000 0.000000 0.000000 -4.920018 0.136538 0.784516 -1.075590 0.151555 0.911733 -6.235164 -17.299183 16.195419 0.000000 0.000000 0.000000 8.205133 0.241100 -2.876390 -5.510280 2.031066 -17.291129 -2.553905 6.500197 27.557158 11.701407 -3.850781 -29.638793 0.000000 0.000000 0.000000 -17.159175 -18.600580 7.797134 -58.304849 -4.911048 -6.811509 5.032661 -25.719170 0.013001 0.000000 0.000000 0.000000 24.072907 3.817649 2.221591 59.724455 6.729684 -5.169648 -3.943803 27.297191 0.727476 0.000000 0.000000 0.000000 
-0.001843 0.948367 0.004312 -0.517996 -4.126521 1.615402 5.332045 0.165716 4.079072 -6.030648 0.609078 -6.228307 4.217904 11.153389 12.533550 0.000000 0.000000 0.000000 -4.889298 0.136318 0.809824 -1.077856 0.147845 0.841882 -6.119882 -17.128502 16.098453 0.000000 0.000000 0.000000 7.980831 0.234077 -2.831621 -5.144226 1.918227 -17.047920 -2.807857 6.207060 27.036002 11.849552 -3.951278 -29.766075 0.000000 0.000000 0.000000 -16.933616 -17.912621 7.518899 -58.015517 -4.254846 -7.063570 3.997456 -27.063017 0.269715 0.000000 0.000000 0.000000 23.648361 3.858146 2.078101 59.647560 7.477525 -4.705722 -4.479090 26.844650 0.568578 0.000000 0.000000 0.000000 
